<svg width="206" height="201" viewBox="0 0 206 201" fill="none" xmlns="http://www.w3.org/2000/svg">
<mask id="path-1-outside-1_328_1295" maskUnits="userSpaceOnUse" x="0" y="0" width="206" height="201" fill="black">
<rect fill="white" width="206" height="201"/>
<path d="M176.889 143.456C178.374 139.291 180.484 136.367 183.227 134.684C185.968 132.993 188.768 132.2 191.627 132.304C194.913 132.424 197.829 133.586 200.372 135.792C202.924 138 204.183 140.824 204.148 144.259C204.133 144.928 204.043 145.654 203.883 146.442C203.732 147.223 203.509 148.004 203.213 148.788C198.489 161.705 192.756 171.878 186.017 179.3C179.273 186.724 172.022 191.948 164.259 194.974C156.504 198.002 148.7 199.373 140.839 199.086C130.256 198.695 121.6 195.835 114.867 190.503C108.144 185.166 104.837 178.198 104.945 169.604C104.982 165.384 106.035 160.861 108.105 156.034L116.267 137.695C117.301 135.358 117.832 132.928 117.858 130.41C117.885 128.178 117.158 126.307 115.676 124.798C114.192 123.281 112.092 122.404 109.372 122.164C104.065 123.563 99.6943 124.201 96.2638 124.075C92.1178 123.921 88.9096 123.041 86.6352 121.435C84.3683 119.835 82.817 117.996 81.9807 115.921C81.154 113.841 80.6729 112.073 80.5465 110.614L50.9136 184.485C49.4336 188.286 47.0028 191.048 43.6207 192.774C40.2482 194.495 36.7027 195.286 32.9878 195.153C28.6938 194.993 24.8836 193.732 21.5502 191.363C18.2162 188.997 16.5787 185.761 16.6288 181.658C16.6475 180.342 17.0195 178.571 17.7528 176.346L73.4832 36.5668C75.253 32.1384 77.8263 29.0997 81.2129 27.4443C84.5967 25.7806 87.9337 25.0112 91.2209 25.1278C94.6515 25.254 97.7174 26.1909 100.41 27.941C103.101 29.6949 104.717 31.6987 105.265 33.9613C109.014 31.5773 112.786 30.1311 116.585 29.6159C120.382 29.0924 123.642 28.8823 126.364 28.9857C127.356 29.0155 128.211 29.0759 128.923 29.1701C129.632 29.2636 130.281 29.3271 130.868 29.3561C137.568 29.8468 143.937 31.5623 149.979 34.4996C156.031 37.4307 160.923 41.3816 164.651 46.3477C168.38 51.3062 170.207 57.2871 170.133 64.2826C170.076 68.9109 169.082 73.9666 167.151 79.4536C165.23 84.9344 162.591 90.0611 159.238 94.8382C155.882 99.6069 151.98 103.365 147.53 106.116C150.074 108.711 152.071 111.622 153.527 114.849C154.99 118.082 155.698 121.805 155.649 126.023C155.594 130.785 154.393 135.706 152.056 140.788L141.242 164.985C140.953 165.899 140.698 166.718 140.469 167.438C140.241 168.152 140.12 168.837 140.106 169.494C140.072 172.399 142.129 173.928 146.288 174.084C149.278 174.195 152.468 173.384 155.855 171.658C159.237 169.932 162.742 166.857 166.365 162.43C169.999 157.996 173.505 151.673 176.889 143.456ZM85.8603 97.1099C88.468 94.0458 91.7074 91.823 95.5786 90.4414C99.4593 89.0537 103.62 88.4454 108.059 88.608C112.635 88.7673 117.126 89.7201 121.536 91.4709C124.124 90.2557 126.396 88.3252 128.353 85.6879C130.319 83.0444 131.822 80.1543 132.865 77.0184C133.904 73.8855 134.438 70.9974 134.461 68.3526C134.513 64.7749 133.298 61.8491 130.825 59.5805C128.347 57.3149 125.035 56.1069 120.892 55.961C116.169 55.7876 111.579 57.0423 107.117 59.7168C102.655 62.3951 99.1031 65.9323 96.4643 70.3331L85.8603 97.1099Z"/>
<path d="M169.076 131.397C170.56 127.233 172.67 124.308 175.413 122.626C178.154 120.935 180.954 120.142 183.813 120.246C187.099 120.366 190.015 121.528 192.559 123.734C195.111 125.942 196.369 128.766 196.334 132.201C196.319 132.87 196.229 133.595 196.069 134.383C195.918 135.165 195.695 135.946 195.399 136.73C190.675 149.647 184.942 159.82 178.203 167.242C171.459 174.666 164.208 179.89 156.445 182.916C148.69 185.944 140.886 187.315 133.025 187.028C122.442 186.637 113.786 183.776 107.053 178.445C100.33 173.108 97.0229 166.14 97.1316 157.546C97.1681 153.326 98.2215 148.803 100.292 143.976L108.453 125.637C109.487 123.3 110.018 120.87 110.044 118.352C110.071 116.12 109.344 114.249 107.863 112.74C106.378 111.222 104.278 110.346 101.558 110.106C96.2514 111.505 91.8805 112.143 88.4499 112.017C84.304 111.863 81.0958 110.983 78.8214 109.377C76.5545 107.777 75.0032 105.937 74.1669 103.863C73.3402 101.783 72.8591 100.014 72.7327 98.5559L43.0998 172.427C41.6198 176.228 39.189 178.989 35.8069 180.716C32.4344 182.437 28.8889 183.228 25.174 183.095C20.88 182.934 17.0698 181.674 13.7364 179.305C10.4023 176.939 8.76484 173.703 8.81493 169.6C8.83371 168.284 9.20565 166.513 9.93903 164.288L65.6694 24.5087C67.4391 20.0803 70.0125 17.0415 73.3991 15.3861C76.7829 13.7225 80.1198 12.9531 83.4071 13.0697C86.8376 13.1958 89.9035 14.1327 92.5959 15.8828C95.2875 17.6367 96.9036 19.6405 97.4509 21.9032C101.2 19.5191 104.972 18.073 108.772 17.5578C112.568 17.0343 115.828 16.8242 118.55 16.9275C119.543 16.9573 120.397 17.0177 121.11 17.112C121.818 17.2054 122.467 17.2689 123.055 17.298C129.754 17.7886 136.123 19.5041 142.165 22.4414C148.217 25.3725 153.109 29.3234 156.837 34.2895C160.566 39.2481 162.393 45.2289 162.319 52.2245C162.262 56.8528 161.268 61.9085 159.337 67.3955C157.416 72.8763 154.777 78.003 151.424 82.78C148.068 87.5488 144.166 91.3068 139.717 94.058C142.26 96.653 144.257 99.5638 145.713 102.791C147.176 106.024 147.884 109.747 147.835 113.965C147.78 118.727 146.58 123.648 144.243 128.73L133.429 152.927C133.14 153.841 132.884 154.659 132.655 155.38C132.427 156.094 132.306 156.779 132.293 157.435C132.258 160.341 134.316 161.869 138.474 162.026C141.464 162.137 144.655 161.326 148.041 159.6C151.423 157.873 154.928 154.799 158.552 150.371C162.185 145.938 165.691 139.615 169.076 131.397ZM78.0465 85.0518C80.6542 81.9877 83.8936 79.7648 87.7648 78.3833C91.6455 76.9956 95.8066 76.3872 100.245 76.5499C104.821 76.7092 109.312 77.6619 113.722 79.4128C116.311 78.1975 118.582 76.267 120.539 73.6297C122.505 70.9862 124.008 68.0961 125.051 64.9602C126.09 61.8274 126.625 58.9393 126.648 56.2945C126.699 52.7168 125.484 49.791 123.011 47.5223C120.533 45.2567 117.221 44.0487 113.078 43.9029C108.355 43.7295 103.765 44.9842 99.3035 47.6587C94.8414 50.3369 91.2893 53.8742 88.6505 58.2749L78.0465 85.0518Z"/>
<path d="M161.262 119.339C162.746 115.175 164.856 112.25 167.6 110.568C170.34 108.877 173.14 108.084 175.999 108.188C179.286 108.308 182.201 109.469 184.745 111.676C187.297 113.884 188.555 116.708 188.52 120.143C188.505 120.811 188.415 121.537 188.255 122.325C188.104 123.107 187.881 123.888 187.586 124.672C182.861 137.589 177.129 147.762 170.389 155.184C163.645 162.608 156.394 167.832 148.631 170.858C140.876 173.886 133.072 175.257 125.212 174.969C114.628 174.579 105.972 171.718 99.2391 166.387C92.516 161.05 89.2091 154.082 89.3178 145.488C89.3543 141.268 90.4077 136.744 92.4779 131.918L100.639 113.579C101.674 111.242 102.204 108.812 102.231 106.294C102.258 104.061 101.53 102.191 100.049 100.682C98.5643 99.1643 96.4639 98.2877 93.7441 98.0475C88.4376 99.4467 84.0667 100.085 80.6361 99.9586C76.4902 99.8044 73.282 98.9248 71.0075 97.319C68.7407 95.7185 67.1894 93.8792 66.3531 91.805C65.5264 89.7246 65.0453 87.9563 64.9188 86.4977L35.286 160.369C33.8059 164.169 31.3752 166.931 27.9931 168.658C24.6205 170.379 21.0751 171.17 17.3602 171.037C13.0662 170.876 9.25595 169.616 5.92257 167.246C2.58853 164.881 0.95102 161.645 1.00112 157.541C1.01989 156.226 1.39183 154.455 2.12521 152.23L57.8555 12.4505C59.6253 8.02212 62.1987 4.98334 65.5853 3.32799C68.9691 1.6643 72.306 0.894922 75.5933 1.0115C79.0238 1.13764 82.0897 2.07459 84.7821 3.82469C87.4737 5.57859 89.0898 7.58234 89.6371 9.84501C93.3866 7.46097 97.1583 6.01481 100.958 5.49963C104.754 4.97611 108.014 4.76603 110.737 4.86939C111.729 4.89915 112.583 4.95959 113.296 5.0538C114.004 5.14727 114.653 5.21078 115.241 5.2398C121.941 5.73047 128.309 7.44598 134.351 10.3833C140.403 13.3144 145.295 17.2653 149.023 22.2314C152.753 27.1899 154.579 33.1707 154.505 40.1663C154.448 44.7946 153.454 49.8503 151.523 55.3373C149.602 60.8181 146.963 65.9448 143.61 70.7219C140.254 75.4906 136.352 79.2486 131.903 81.9998C134.446 84.5948 136.444 87.5056 137.899 90.7329C139.363 93.9655 140.07 97.6887 140.021 101.906C139.966 106.669 138.766 111.59 136.429 116.672L125.615 140.869C125.326 141.783 125.071 142.601 124.841 143.322C124.613 144.035 124.492 144.72 124.479 145.377C124.444 148.283 126.502 149.811 130.66 149.968C133.65 150.079 136.841 149.268 140.227 147.542C143.609 145.815 147.114 142.74 150.738 138.313C154.371 133.88 157.878 127.556 161.262 119.339ZM70.2327 72.9936C72.8404 69.9295 76.0798 67.7067 79.9509 66.3251C83.8317 64.9374 87.9928 64.3291 92.4314 64.4917C97.007 64.651 101.498 65.6038 105.908 67.3546C108.497 66.1393 110.768 64.2089 112.725 61.5715C114.692 58.9281 116.194 56.038 117.238 52.9021C118.276 49.7692 118.811 46.8811 118.834 44.2363C118.885 40.6586 117.67 37.7328 115.197 35.4641C112.719 33.1986 109.407 31.9906 105.264 31.8447C100.542 31.6713 95.9512 32.926 91.4897 35.6005C87.0276 38.2788 83.4754 41.816 80.8367 46.2167L70.2327 72.9936Z"/>
</mask>
<path d="M176.889 143.456C178.374 139.291 180.484 136.367 183.227 134.684C185.968 132.993 188.768 132.2 191.627 132.304C194.913 132.424 197.829 133.586 200.372 135.792C202.924 138 204.183 140.824 204.148 144.259C204.133 144.928 204.043 145.654 203.883 146.442C203.732 147.223 203.509 148.004 203.213 148.788C198.489 161.705 192.756 171.878 186.017 179.3C179.273 186.724 172.022 191.948 164.259 194.974C156.504 198.002 148.7 199.373 140.839 199.086C130.256 198.695 121.6 195.835 114.867 190.503C108.144 185.166 104.837 178.198 104.945 169.604C104.982 165.384 106.035 160.861 108.105 156.034L116.267 137.695C117.301 135.358 117.832 132.928 117.858 130.41C117.885 128.178 117.158 126.307 115.676 124.798C114.192 123.281 112.092 122.404 109.372 122.164C104.065 123.563 99.6943 124.201 96.2638 124.075C92.1178 123.921 88.9096 123.041 86.6352 121.435C84.3683 119.835 82.817 117.996 81.9807 115.921C81.154 113.841 80.6729 112.073 80.5465 110.614L50.9136 184.485C49.4336 188.286 47.0028 191.048 43.6207 192.774C40.2482 194.495 36.7027 195.286 32.9878 195.153C28.6938 194.993 24.8836 193.732 21.5502 191.363C18.2162 188.997 16.5787 185.761 16.6288 181.658C16.6475 180.342 17.0195 178.571 17.7528 176.346L73.4832 36.5668C75.253 32.1384 77.8263 29.0997 81.2129 27.4443C84.5967 25.7806 87.9337 25.0112 91.2209 25.1278C94.6515 25.254 97.7174 26.1909 100.41 27.941C103.101 29.6949 104.717 31.6987 105.265 33.9613C109.014 31.5773 112.786 30.1311 116.585 29.6159C120.382 29.0924 123.642 28.8823 126.364 28.9857C127.356 29.0155 128.211 29.0759 128.923 29.1701C129.632 29.2636 130.281 29.3271 130.868 29.3561C137.568 29.8468 143.937 31.5623 149.979 34.4996C156.031 37.4307 160.923 41.3816 164.651 46.3477C168.38 51.3062 170.207 57.2871 170.133 64.2826C170.076 68.9109 169.082 73.9666 167.151 79.4536C165.23 84.9344 162.591 90.0611 159.238 94.8382C155.882 99.6069 151.98 103.365 147.53 106.116C150.074 108.711 152.071 111.622 153.527 114.849C154.99 118.082 155.698 121.805 155.649 126.023C155.594 130.785 154.393 135.706 152.056 140.788L141.242 164.985C140.953 165.899 140.698 166.718 140.469 167.438C140.241 168.152 140.12 168.837 140.106 169.494C140.072 172.399 142.129 173.928 146.288 174.084C149.278 174.195 152.468 173.384 155.855 171.658C159.237 169.932 162.742 166.857 166.365 162.43C169.999 157.996 173.505 151.673 176.889 143.456ZM85.8603 97.1099C88.468 94.0458 91.7074 91.823 95.5786 90.4414C99.4593 89.0537 103.62 88.4454 108.059 88.608C112.635 88.7673 117.126 89.7201 121.536 91.4709C124.124 90.2557 126.396 88.3252 128.353 85.6879C130.319 83.0444 131.822 80.1543 132.865 77.0184C133.904 73.8855 134.438 70.9974 134.461 68.3526C134.513 64.7749 133.298 61.8491 130.825 59.5805C128.347 57.3149 125.035 56.1069 120.892 55.961C116.169 55.7876 111.579 57.0423 107.117 59.7168C102.655 62.3951 99.1031 65.9323 96.4643 70.3331L85.8603 97.1099Z" fill="black"/>
<path d="M169.076 131.397C170.56 127.233 172.67 124.308 175.413 122.626C178.154 120.935 180.954 120.142 183.813 120.246C187.099 120.366 190.015 121.528 192.559 123.734C195.111 125.942 196.369 128.766 196.334 132.201C196.319 132.87 196.229 133.595 196.069 134.383C195.918 135.165 195.695 135.946 195.399 136.73C190.675 149.647 184.942 159.82 178.203 167.242C171.459 174.666 164.208 179.89 156.445 182.916C148.69 185.944 140.886 187.315 133.025 187.028C122.442 186.637 113.786 183.776 107.053 178.445C100.33 173.108 97.0229 166.14 97.1316 157.546C97.1681 153.326 98.2215 148.803 100.292 143.976L108.453 125.637C109.487 123.3 110.018 120.87 110.044 118.352C110.071 116.12 109.344 114.249 107.863 112.74C106.378 111.222 104.278 110.346 101.558 110.106C96.2514 111.505 91.8805 112.143 88.4499 112.017C84.304 111.863 81.0958 110.983 78.8214 109.377C76.5545 107.777 75.0032 105.937 74.1669 103.863C73.3402 101.783 72.8591 100.014 72.7327 98.5559L43.0998 172.427C41.6198 176.228 39.189 178.989 35.8069 180.716C32.4344 182.437 28.8889 183.228 25.174 183.095C20.88 182.934 17.0698 181.674 13.7364 179.305C10.4023 176.939 8.76484 173.703 8.81493 169.6C8.83371 168.284 9.20565 166.513 9.93903 164.288L65.6694 24.5087C67.4391 20.0803 70.0125 17.0415 73.3991 15.3861C76.7829 13.7225 80.1198 12.9531 83.4071 13.0697C86.8376 13.1958 89.9035 14.1327 92.5959 15.8828C95.2875 17.6367 96.9036 19.6405 97.4509 21.9032C101.2 19.5191 104.972 18.073 108.772 17.5578C112.568 17.0343 115.828 16.8242 118.55 16.9275C119.543 16.9573 120.397 17.0177 121.11 17.112C121.818 17.2054 122.467 17.2689 123.055 17.298C129.754 17.7886 136.123 19.5041 142.165 22.4414C148.217 25.3725 153.109 29.3234 156.837 34.2895C160.566 39.2481 162.393 45.2289 162.319 52.2245C162.262 56.8528 161.268 61.9085 159.337 67.3955C157.416 72.8763 154.777 78.003 151.424 82.78C148.068 87.5488 144.166 91.3068 139.717 94.058C142.26 96.653 144.257 99.5638 145.713 102.791C147.176 106.024 147.884 109.747 147.835 113.965C147.78 118.727 146.58 123.648 144.243 128.73L133.429 152.927C133.14 153.841 132.884 154.659 132.655 155.38C132.427 156.094 132.306 156.779 132.293 157.435C132.258 160.341 134.316 161.869 138.474 162.026C141.464 162.137 144.655 161.326 148.041 159.6C151.423 157.873 154.928 154.799 158.552 150.371C162.185 145.938 165.691 139.615 169.076 131.397ZM78.0465 85.0518C80.6542 81.9877 83.8936 79.7648 87.7648 78.3833C91.6455 76.9956 95.8066 76.3872 100.245 76.5499C104.821 76.7092 109.312 77.6619 113.722 79.4128C116.311 78.1975 118.582 76.267 120.539 73.6297C122.505 70.9862 124.008 68.0961 125.051 64.9602C126.09 61.8274 126.625 58.9393 126.648 56.2945C126.699 52.7168 125.484 49.791 123.011 47.5223C120.533 45.2567 117.221 44.0487 113.078 43.9029C108.355 43.7295 103.765 44.9842 99.3035 47.6587C94.8414 50.3369 91.2893 53.8742 88.6505 58.2749L78.0465 85.0518Z" fill="#808080"/>
<path d="M161.262 119.339C162.746 115.175 164.856 112.25 167.6 110.568C170.34 108.877 173.14 108.084 175.999 108.188C179.286 108.308 182.201 109.469 184.745 111.676C187.297 113.884 188.555 116.708 188.52 120.143C188.505 120.811 188.415 121.537 188.255 122.325C188.104 123.107 187.881 123.888 187.586 124.672C182.861 137.589 177.129 147.762 170.389 155.184C163.645 162.608 156.394 167.832 148.631 170.858C140.876 173.886 133.072 175.257 125.212 174.969C114.628 174.579 105.972 171.718 99.2391 166.387C92.516 161.05 89.2091 154.082 89.3178 145.488C89.3543 141.268 90.4077 136.744 92.4779 131.918L100.639 113.579C101.674 111.242 102.204 108.812 102.231 106.294C102.258 104.061 101.53 102.191 100.049 100.682C98.5643 99.1643 96.4639 98.2877 93.7441 98.0475C88.4376 99.4467 84.0667 100.085 80.6361 99.9586C76.4902 99.8044 73.282 98.9248 71.0075 97.319C68.7407 95.7185 67.1894 93.8792 66.3531 91.805C65.5264 89.7246 65.0453 87.9563 64.9188 86.4977L35.286 160.369C33.8059 164.169 31.3752 166.931 27.9931 168.658C24.6205 170.379 21.0751 171.17 17.3602 171.037C13.0662 170.876 9.25595 169.616 5.92257 167.246C2.58853 164.881 0.95102 161.645 1.00112 157.541C1.01989 156.226 1.39183 154.455 2.12521 152.23L57.8555 12.4505C59.6253 8.02212 62.1987 4.98334 65.5853 3.32799C68.9691 1.6643 72.306 0.894922 75.5933 1.0115C79.0238 1.13764 82.0897 2.07459 84.7821 3.82469C87.4737 5.57859 89.0898 7.58234 89.6371 9.84501C93.3866 7.46097 97.1583 6.01481 100.958 5.49963C104.754 4.97611 108.014 4.76603 110.737 4.86939C111.729 4.89915 112.583 4.95959 113.296 5.0538C114.004 5.14727 114.653 5.21078 115.241 5.2398C121.941 5.73047 128.309 7.44598 134.351 10.3833C140.403 13.3144 145.295 17.2653 149.023 22.2314C152.753 27.1899 154.579 33.1707 154.505 40.1663C154.448 44.7946 153.454 49.8503 151.523 55.3373C149.602 60.8181 146.963 65.9448 143.61 70.7219C140.254 75.4906 136.352 79.2486 131.903 81.9998C134.446 84.5948 136.444 87.5056 137.899 90.7329C139.363 93.9655 140.07 97.6887 140.021 101.906C139.966 106.669 138.766 111.59 136.429 116.672L125.615 140.869C125.326 141.783 125.071 142.601 124.841 143.322C124.613 144.035 124.492 144.72 124.479 145.377C124.444 148.283 126.502 149.811 130.66 149.968C133.65 150.079 136.841 149.268 140.227 147.542C143.609 145.815 147.114 142.74 150.738 138.313C154.371 133.88 157.878 127.556 161.262 119.339ZM70.2327 72.9936C72.8404 69.9295 76.0798 67.7067 79.9509 66.3251C83.8317 64.9374 87.9928 64.3291 92.4314 64.4917C97.007 64.651 101.498 65.6038 105.908 67.3546C108.497 66.1393 110.768 64.2089 112.725 61.5715C114.692 58.9281 116.194 56.038 117.238 52.9021C118.276 49.7692 118.811 46.8811 118.834 44.2363C118.885 40.6586 117.67 37.7328 115.197 35.4641C112.719 33.1986 109.407 31.9906 105.264 31.8447C100.542 31.6713 95.9512 32.926 91.4897 35.6005C87.0276 38.2788 83.4754 41.816 80.8367 46.2167L70.2327 72.9936Z" fill="#F2F2F2"/>
<path d="M176.889 143.456C178.374 139.291 180.484 136.367 183.227 134.684C185.968 132.993 188.768 132.2 191.627 132.304C194.913 132.424 197.829 133.586 200.372 135.792C202.924 138 204.183 140.824 204.148 144.259C204.133 144.928 204.043 145.654 203.883 146.442C203.732 147.223 203.509 148.004 203.213 148.788C198.489 161.705 192.756 171.878 186.017 179.3C179.273 186.724 172.022 191.948 164.259 194.974C156.504 198.002 148.7 199.373 140.839 199.086C130.256 198.695 121.6 195.835 114.867 190.503C108.144 185.166 104.837 178.198 104.945 169.604C104.982 165.384 106.035 160.861 108.105 156.034L116.267 137.695C117.301 135.358 117.832 132.928 117.858 130.41C117.885 128.178 117.158 126.307 115.676 124.798C114.192 123.281 112.092 122.404 109.372 122.164C104.065 123.563 99.6943 124.201 96.2638 124.075C92.1178 123.921 88.9096 123.041 86.6352 121.435C84.3683 119.835 82.817 117.996 81.9807 115.921C81.154 113.841 80.6729 112.073 80.5465 110.614L50.9136 184.485C49.4336 188.286 47.0028 191.048 43.6207 192.774C40.2482 194.495 36.7027 195.286 32.9878 195.153C28.6938 194.993 24.8836 193.732 21.5502 191.363C18.2162 188.997 16.5787 185.761 16.6288 181.658C16.6475 180.342 17.0195 178.571 17.7528 176.346L73.4832 36.5668C75.253 32.1384 77.8263 29.0997 81.2129 27.4443C84.5967 25.7806 87.9337 25.0112 91.2209 25.1278C94.6515 25.254 97.7174 26.1909 100.41 27.941C103.101 29.6949 104.717 31.6987 105.265 33.9613C109.014 31.5773 112.786 30.1311 116.585 29.6159C120.382 29.0924 123.642 28.8823 126.364 28.9857C127.356 29.0155 128.211 29.0759 128.923 29.1701C129.632 29.2636 130.281 29.3271 130.868 29.3561C137.568 29.8468 143.937 31.5623 149.979 34.4996C156.031 37.4307 160.923 41.3816 164.651 46.3477C168.38 51.3062 170.207 57.2871 170.133 64.2826C170.076 68.9109 169.082 73.9666 167.151 79.4536C165.23 84.9344 162.591 90.0611 159.238 94.8382C155.882 99.6069 151.98 103.365 147.53 106.116C150.074 108.711 152.071 111.622 153.527 114.849C154.99 118.082 155.698 121.805 155.649 126.023C155.594 130.785 154.393 135.706 152.056 140.788L141.242 164.985C140.953 165.899 140.698 166.718 140.469 167.438C140.241 168.152 140.12 168.837 140.106 169.494C140.072 172.399 142.129 173.928 146.288 174.084C149.278 174.195 152.468 173.384 155.855 171.658C159.237 169.932 162.742 166.857 166.365 162.43C169.999 157.996 173.505 151.673 176.889 143.456ZM85.8603 97.1099C88.468 94.0458 91.7074 91.823 95.5786 90.4414C99.4593 89.0537 103.62 88.4454 108.059 88.608C112.635 88.7673 117.126 89.7201 121.536 91.4709C124.124 90.2557 126.396 88.3252 128.353 85.6879C130.319 83.0444 131.822 80.1543 132.865 77.0184C133.904 73.8855 134.438 70.9974 134.461 68.3526C134.513 64.7749 133.298 61.8491 130.825 59.5805C128.347 57.3149 125.035 56.1069 120.892 55.961C116.169 55.7876 111.579 57.0423 107.117 59.7168C102.655 62.3951 99.1031 65.9323 96.4643 70.3331L85.8603 97.1099Z" stroke="black" stroke-width="2" mask="url(#path-1-outside-1_328_1295)"/>
<path d="M169.076 131.397C170.56 127.233 172.67 124.308 175.413 122.626C178.154 120.935 180.954 120.142 183.813 120.246C187.099 120.366 190.015 121.528 192.559 123.734C195.111 125.942 196.369 128.766 196.334 132.201C196.319 132.87 196.229 133.595 196.069 134.383C195.918 135.165 195.695 135.946 195.399 136.73C190.675 149.647 184.942 159.82 178.203 167.242C171.459 174.666 164.208 179.89 156.445 182.916C148.69 185.944 140.886 187.315 133.025 187.028C122.442 186.637 113.786 183.776 107.053 178.445C100.33 173.108 97.0229 166.14 97.1316 157.546C97.1681 153.326 98.2215 148.803 100.292 143.976L108.453 125.637C109.487 123.3 110.018 120.87 110.044 118.352C110.071 116.12 109.344 114.249 107.863 112.74C106.378 111.222 104.278 110.346 101.558 110.106C96.2514 111.505 91.8805 112.143 88.4499 112.017C84.304 111.863 81.0958 110.983 78.8214 109.377C76.5545 107.777 75.0032 105.937 74.1669 103.863C73.3402 101.783 72.8591 100.014 72.7327 98.5559L43.0998 172.427C41.6198 176.228 39.189 178.989 35.8069 180.716C32.4344 182.437 28.8889 183.228 25.174 183.095C20.88 182.934 17.0698 181.674 13.7364 179.305C10.4023 176.939 8.76484 173.703 8.81493 169.6C8.83371 168.284 9.20565 166.513 9.93903 164.288L65.6694 24.5087C67.4391 20.0803 70.0125 17.0415 73.3991 15.3861C76.7829 13.7225 80.1198 12.9531 83.4071 13.0697C86.8376 13.1958 89.9035 14.1327 92.5959 15.8828C95.2875 17.6367 96.9036 19.6405 97.4509 21.9032C101.2 19.5191 104.972 18.073 108.772 17.5578C112.568 17.0343 115.828 16.8242 118.55 16.9275C119.543 16.9573 120.397 17.0177 121.11 17.112C121.818 17.2054 122.467 17.2689 123.055 17.298C129.754 17.7886 136.123 19.5041 142.165 22.4414C148.217 25.3725 153.109 29.3234 156.837 34.2895C160.566 39.2481 162.393 45.2289 162.319 52.2245C162.262 56.8528 161.268 61.9085 159.337 67.3955C157.416 72.8763 154.777 78.003 151.424 82.78C148.068 87.5488 144.166 91.3068 139.717 94.058C142.26 96.653 144.257 99.5638 145.713 102.791C147.176 106.024 147.884 109.747 147.835 113.965C147.78 118.727 146.58 123.648 144.243 128.73L133.429 152.927C133.14 153.841 132.884 154.659 132.655 155.38C132.427 156.094 132.306 156.779 132.293 157.435C132.258 160.341 134.316 161.869 138.474 162.026C141.464 162.137 144.655 161.326 148.041 159.6C151.423 157.873 154.928 154.799 158.552 150.371C162.185 145.938 165.691 139.615 169.076 131.397ZM78.0465 85.0518C80.6542 81.9877 83.8936 79.7648 87.7648 78.3833C91.6455 76.9956 95.8066 76.3872 100.245 76.5499C104.821 76.7092 109.312 77.6619 113.722 79.4128C116.311 78.1975 118.582 76.267 120.539 73.6297C122.505 70.9862 124.008 68.0961 125.051 64.9602C126.09 61.8274 126.625 58.9393 126.648 56.2945C126.699 52.7168 125.484 49.791 123.011 47.5223C120.533 45.2567 117.221 44.0487 113.078 43.9029C108.355 43.7295 103.765 44.9842 99.3035 47.6587C94.8414 50.3369 91.2893 53.8742 88.6505 58.2749L78.0465 85.0518Z" stroke="black" stroke-width="2" mask="url(#path-1-outside-1_328_1295)"/>
<path d="M161.262 119.339C162.746 115.175 164.856 112.25 167.6 110.568C170.34 108.877 173.14 108.084 175.999 108.188C179.286 108.308 182.201 109.469 184.745 111.676C187.297 113.884 188.555 116.708 188.52 120.143C188.505 120.811 188.415 121.537 188.255 122.325C188.104 123.107 187.881 123.888 187.586 124.672C182.861 137.589 177.129 147.762 170.389 155.184C163.645 162.608 156.394 167.832 148.631 170.858C140.876 173.886 133.072 175.257 125.212 174.969C114.628 174.579 105.972 171.718 99.2391 166.387C92.516 161.05 89.2091 154.082 89.3178 145.488C89.3543 141.268 90.4077 136.744 92.4779 131.918L100.639 113.579C101.674 111.242 102.204 108.812 102.231 106.294C102.258 104.061 101.53 102.191 100.049 100.682C98.5643 99.1643 96.4639 98.2877 93.7441 98.0475C88.4376 99.4467 84.0667 100.085 80.6361 99.9586C76.4902 99.8044 73.282 98.9248 71.0075 97.319C68.7407 95.7185 67.1894 93.8792 66.3531 91.805C65.5264 89.7246 65.0453 87.9563 64.9188 86.4977L35.286 160.369C33.8059 164.169 31.3752 166.931 27.9931 168.658C24.6205 170.379 21.0751 171.17 17.3602 171.037C13.0662 170.876 9.25595 169.616 5.92257 167.246C2.58853 164.881 0.95102 161.645 1.00112 157.541C1.01989 156.226 1.39183 154.455 2.12521 152.23L57.8555 12.4505C59.6253 8.02212 62.1987 4.98334 65.5853 3.32799C68.9691 1.6643 72.306 0.894922 75.5933 1.0115C79.0238 1.13764 82.0897 2.07459 84.7821 3.82469C87.4737 5.57859 89.0898 7.58234 89.6371 9.84501C93.3866 7.46097 97.1583 6.01481 100.958 5.49963C104.754 4.97611 108.014 4.76603 110.737 4.86939C111.729 4.89915 112.583 4.95959 113.296 5.0538C114.004 5.14727 114.653 5.21078 115.241 5.2398C121.941 5.73047 128.309 7.44598 134.351 10.3833C140.403 13.3144 145.295 17.2653 149.023 22.2314C152.753 27.1899 154.579 33.1707 154.505 40.1663C154.448 44.7946 153.454 49.8503 151.523 55.3373C149.602 60.8181 146.963 65.9448 143.61 70.7219C140.254 75.4906 136.352 79.2486 131.903 81.9998C134.446 84.5948 136.444 87.5056 137.899 90.7329C139.363 93.9655 140.07 97.6887 140.021 101.906C139.966 106.669 138.766 111.59 136.429 116.672L125.615 140.869C125.326 141.783 125.071 142.601 124.841 143.322C124.613 144.035 124.492 144.72 124.479 145.377C124.444 148.283 126.502 149.811 130.66 149.968C133.65 150.079 136.841 149.268 140.227 147.542C143.609 145.815 147.114 142.74 150.738 138.313C154.371 133.88 157.878 127.556 161.262 119.339ZM70.2327 72.9936C72.8404 69.9295 76.0798 67.7067 79.9509 66.3251C83.8317 64.9374 87.9928 64.3291 92.4314 64.4917C97.007 64.651 101.498 65.6038 105.908 67.3546C108.497 66.1393 110.768 64.2089 112.725 61.5715C114.692 58.9281 116.194 56.038 117.238 52.9021C118.276 49.7692 118.811 46.8811 118.834 44.2363C118.885 40.6586 117.67 37.7328 115.197 35.4641C112.719 33.1986 109.407 31.9906 105.264 31.8447C100.542 31.6713 95.9512 32.926 91.4897 35.6005C87.0276 38.2788 83.4754 41.816 80.8367 46.2167L70.2327 72.9936Z" stroke="black" stroke-width="2" mask="url(#path-1-outside-1_328_1295)"/>
</svg>
